<?xml version="1.0" encoding="UTF-8" standalone="no"?>
<svg width="240" height="240" viewBox="0 0 240 240"
  xmlns="http://www.w3.org/2000/svg"
  xmlns:svg="http://www.w3.org/2000/svg">
  <g>
    <g transform="matrix(1.5490327,0,0,1.5490327,-14.602041,-80.297617)">
      <path id="SVG"
        d="m 77.407071,159.47641 c 0,1.10626 -0.214794,2.11586 -0.643132,3.02982 -0.428962,0.91397 -1.038343,1.69835 -1.827935,2.35274 -0.790216,0.655 -1.766059,1.16251 -2.928154,1.52334 -1.16272,0.36063 -2.465858,0.54188 -3.90983,0.54188 -2.076688,0 -3.876081,-0.3275 -5.399429,-0.98188 -1.523348,-0.65438 -2.770653,-1.45543 -3.740662,-2.40336 l 2.877528,-3.14815 c 0.857509,0.7675 1.788352,1.35397 2.792737,1.76022 1.003968,0.40626 2.081895,0.60938 3.232948,0.60938 1.151053,0 2.053354,-0.25396 2.708152,-0.76167 0.654382,-0.50792 0.981677,-1.20189 0.981677,-2.0819 0,-0.42833 -0.0625,-0.80084 -0.186252,-1.11688 -0.124168,-0.31605 -0.344379,-0.60938 -0.660007,-0.88043 -0.316253,-0.27083 -0.739382,-0.5248 -1.269387,-0.76146 -0.530422,-0.23709 -1.201679,-0.47938 -2.014187,-0.72793 -1.35418,-0.42834 -2.48815,-0.88542 -3.402117,-1.37085 -0.913968,-0.485 -1.653558,-1.02084 -2.217314,-1.60814 -0.564381,-0.58646 -0.970635,-1.23563 -1.218554,-1.94647 -0.248544,-0.71084 -0.372503,-1.50627 -0.372503,-2.38649 0,-1.08334 0.225419,-2.04814 0.67709,-2.8944 0.451254,-0.84626 1.071677,-1.56252 1.861893,-2.1496 0.7898,-0.58647 1.703767,-1.03251 2.742111,-1.3371 1.037718,-0.30459 2.154813,-0.45688 3.351283,-0.45688 1.760226,0 3.30045,0.25979 4.620671,0.77855 1.320222,0.51938 2.4994,1.27522 3.537535,2.26815 l -2.640443,3.04669 c -1.579807,-1.30855 -3.26149,-1.96335 -5.0438,-1.96335 -1.015635,0 -1.816893,0.19792 -2.403565,0.59251 -0.58709,0.395 -0.880218,0.95376 -0.880218,1.67564 0,0.38396 0.06188,0.71084 0.186252,0.98167 0.123752,0.27084 0.343754,0.5248 0.660007,0.76168 0.315836,0.23688 0.761674,0.46855 1.337097,0.69396 0.57563,0.22584 1.314388,0.48543 2.217313,0.77835 1.105428,0.36125 2.092938,0.75646 2.962113,1.18501 0.86855,0.42917 1.596266,0.94251 2.183355,1.54043 0.586464,0.59813 1.037719,1.28626 1.35418,2.06481 0.315212,0.77793 0.473547,1.70877 0.473547,2.79211 z m 11.103235,2.20044 4.299418,-18.78789 h 5.72089 l -6.669025,23.4594 h -7.007153 l -6.702775,-23.4594 h 5.957976 l 4.231501,18.78789 z m 21.225004,5.24714 c -3.40774,0 -6.02006,-1.04376 -7.83654,-3.13128 -1.8171,-2.08732 -2.725233,-5.16235 -2.725233,-9.22468 0,-1.98564 0.293128,-3.74587 0.880213,-5.28089 0.58647,-1.53459 1.39335,-2.82086 2.42044,-3.8592 1.02668,-1.03772 2.22253,-1.82231 3.58817,-2.35273 1.36563,-0.53001 2.82669,-0.79543 4.384,-0.79543 1.7146,0 3.21586,0.27084 4.50233,0.8123 1.28627,0.54167 2.40357,1.24147 3.35129,2.09898 l -2.94524,3.0467 c -0.7223,-0.63167 -1.43876,-1.10022 -2.1496,-1.40502 -0.71085,-0.30479 -1.54023,-0.45687 -2.48774,-0.45687 -0.83542,0 -1.60272,0.15229 -2.30231,0.45687 -0.69959,0.30459 -1.30335,0.79022 -1.81065,1.45564 -0.50792,0.66584 -0.90292,1.51814 -1.18501,2.55586 -0.28229,1.03835 -0.42313,2.29086 -0.42313,3.75775 0,1.53481 0.10125,2.82649 0.3048,3.87587 0.20313,1.04939 0.50167,1.89585 0.89688,2.53898 0.3948,0.64314 0.8973,1.10606 1.50627,1.38793 0.60959,0.2823 1.32043,0.42313 2.13293,0.42313 1.17314,0 2.21107,-0.25917 3.11399,-0.77855 v -5.24713 h -3.08023 l -0.54168,-3.92692 h 9.07239 v 11.5772 c -1.21877,0.79022 -2.56191,1.3996 -4.02838,1.82794 -1.4673,0.42854 -3.01315,0.64355 -4.63796,0.64355 z m 17.84768,-28.02507 c 0,-1.38064 -1.11939,-2.50003 -2.50003,-2.50003 H 53.623917 c -1.380639,0 -2.500025,1.11939 -2.500025,2.50003 v 31.25031 c 0,1.38064 1.119386,2.50002 2.500025,2.50002 h 71.459043 c 1.38064,0 2.50003,-1.11938 2.50003,-2.50002 z"
        fill="#fff" fill-opacity="0" stroke="none">
        <animate attributeName="fill-opacity"
          from="0" to="1"
          begin="2.8s" dur="0.5s"
          fill="freeze"/>
      </path>
      <g fill="none" stroke="#fff" stroke-width="2" stroke-linecap="round">
        <path id="Anima"
          d="m 51.64465,116.06383 c 0,0 -22.303066,3.45357 -27.325212,6.35311 -5.022146,2.89953 -5.123477,7.99262 -2.664208,9.63214 2.459269,1.63951 7.582746,1.84445 8.949007,-5.87493 1.503711,-8.49597 11.476589,-40.099734 11.476589,-40.099734 0,0 2.527582,36.677594 2.527582,42.422384 0,4.71359 3.279025,5.2601 5.19179,4.16709 1.912765,-1.09301 5.601668,-12.70621 5.601668,-14.07247 0,-1.36627 -1.5712,14.96054 -1.5712,14.96054 0,0 0.273253,-14.96054 8.607443,-14.55067 6.010488,0.2956 -1.480046,15.07242 3.483964,14.20911 4.713599,-0.81975 7.651059,-14.41405 7.651059,-14.41405 0,0 -2.709647,17.69337 2.93746,13.86755 4.7706,-3.232 4.713599,-13.66261 4.713599,-13.66261 l -0.136626,14.27742 c 0,0 -1.529281,-21.00466 5.874921,-12.56959 1.204121,1.37177 -10e-7,12.43199 -10e-7,12.43297 0,0 0.844859,-21.70511 6.284799,-12.02309 1.816251,3.23257 0.717965,13.93802 3.75864,11.56562 4.029596,-3.14398 4.256796,-10.35291 10.228506,-13.36286"
          stroke-dasharray="360 400" stroke-dashoffset="360">
          <animate attributeName="stroke-dashoffset"
            from="360" to="0"
            begin="0s" dur="1.2s"
            fill="freeze"/>
        </path>
        <path id="ated"
          d="m 107.23443,119.32176 c 0.51857,-0.26138 0.65702,-0.51099 0.0991,-0.58239 -7.536914,1.81231 -8.980974,11.96578 -3.06771,14.65718 5.51389,2.36891 3.59133,-14.30778 3.4707,-14.25953 -1.2994,0.43501 -3.20132,15.57944 3.27212,14.07338 10.24681,-2.38394 4.91854,-44.335149 4.91854,-44.335149 0,0 -4.82728,42.402269 6.89962,44.198529 2.8227,0.52393 6.1831,-5.03292 7.6826,-7.15263 13.23548,-18.70982 -19.75629,5.37715 2.49604,7.08432 5.66052,0.31179 4.49805,-10.37062 11.25457,-12.82578 4.52038,-1.64261 -5.09741,-4.44296 -6.28229,5.88956 -1.32797,11.58039 8.93017,5.85863 9.57839,2.22261 0.94222,-5.28523 -0.61482,-39.006731 -0.61482,-39.006731 -0.14506,0.59626 -6.06103,47.211501 6.763,43.652021"
          stroke-dasharray="330 700" stroke-dashoffset="330">
          <animate attributeName="stroke-dashoffset"
            from="330" to="0"
            begin="1.185s" dur="1.0s"
            fill="freeze"/>
        </path>
        <path id="dot-the-i"
          d="m 73.368193,115.51733 c 0,0 0.409878,-0.44404 2.614817,-2.30741"
          stroke-dasharray="3 20" stroke-dashoffset="3">
          <animate attributeName="stroke-dashoffset"
            from="3" to="0"
            begin="2.3s" dur="0.1s"
            fill="freeze"/>
        </path>
        <path id="cross-the-t"
          d="m 103.37185,109.36163 c 1.35254,-5.79655 19.51507,-8.88805 28.01668,-8.50161"
          stroke-dasharray="50 60" stroke-dashoffset="50">
          <animate attributeName="stroke-dashoffset"
            from="50" to="0"
            begin="2.5s" dur="0.2s"
            fill="freeze"/>
        </path>
      </g>
    </g>
    <animate attributeName="opacity"
      from="1" to="0"
      begin="4s" dur="0.5s"
      fill="freeze"/>
  </g>
</svg>