<?xml version="1.0" encoding="UTF-8" standalone="no"?>
<svg width="240" height="240" viewBox="0 0 240 240"
   xmlns:xlink="http://www.w3.org/1999/xlink" xmlns="http://www.w3.org/2000/svg" xmlns:svg="http://www.w3.org/2000/svg">
  <defs>
    <linearGradient id="linearGradient31005"
       x1="120" y1="192" x2="120" y2="35" gradientUnits="userSpaceOnUse"
       gradientTransform="matrix(1.0014935,0,0,1.0060822,0,-0.82474147)">
      <stop stop-color="#6f6f6e" stop-opacity="1" offset="0"/>
      <stop stop-color="#cccbca" stop-opacity="1" offset="1"/>
    </linearGradient>
    <radialGradient id="radialGradient32644"
      cx="120" cy="120" fx="120" fy="120" r="120" gradientUnits="userSpaceOnUse">
      <stop stop-color="#ffffff" stop-opacity="1" offset="0.75842696"/>
      <stop stop-color="#979494" stop-opacity="0.56806284" offset="0.87827712"/>
      <stop stop-color="#000000" stop-opacity="0" offset="0.97378278"/>
    </radialGradient>
    <radialGradient id="radialGradient32765"
      cx="120" cy="120" fx="120" fy="120" r="120" gradientUnits="userSpaceOnUse">
      <stop stop-color="#3a3a3a" stop-opacity="0.14141414" offset="0"/>
      <stop stop-color="#c0c0c0" stop-opacity="0.09090912" offset="1"/>
    </radialGradient>
    <radialGradient id="radialGradient39232"
      cx="120" cy="120" fx="120" fy="120" r="3" gradientUnits="userSpaceOnUse">
      <stop stop-color="#6f6f6e" stop-opacity="1" offset="0"/>
      <stop stop-color="#8e8d8d" stop-opacity="1" offset="1"/>
    </radialGradient>
  </defs>
  <g id="watch-face">
    <circle cx="120" cy="120" r="120" fill="url(#linearGradient31005)"/>
    <circle cx="120" cy="120" r="120" fill="url(#radialGradient32765)"/>
    <path d="M 120,0 A 120,120 0 0 0 0,120 120,120 0 0 0 120,240 120,120 0 0 0 240,120 120,120 0 0 0 120,0 Z m 0,20 A 100,100 0 0 1 220,120 100,100 0 0 1 120,220 100,100 0 0 1 20,120 100,100 0 0 1 120,20 Z" 
      fill="url(#radialGradient32644)" />
  </g>
  <g fill="#fff" fill-opacity="0.75" stroke="#000" stroke-opacity="0.25" stroke-width="0.3">
    <path d="m 164.86102,49.430181 q 0,0.959634 0.0573,1.403644 0.0716,0.44401 0.21484,0.701822 0.15755,0.257813 0.44401,0.429688 0.30078,0.171874 0.95964,0.343749 v 0.701822 h -6.04427 v -0.701822 q 0.88802,-0.229166 1.1888,-0.501301 0.30078,-0.286458 0.38672,-0.802083 0.10026,-0.515624 0.10026,-1.575519 V 37.040872 q 0,-0.98828 -0.0716,-1.43229 -0.0716,-0.458332 -0.24349,-0.701822 -0.15756,-0.257812 -0.42969,-0.401041 -0.27214,-0.157552 -0.93099,-0.343749 v -0.701823 h 6.04427 v 0.701823 q -0.63021,0.157551 -0.91667,0.315103 -0.27214,0.157552 -0.44401,0.401042 -0.15755,0.229166 -0.24349,0.701822 -0.0716,0.472655 -0.0716,1.460935 z" />
    <path d="m 193.27924,81.12742 q 0,0.959634 0.0573,1.403644 0.0716,0.44401 0.21484,0.701822 0.15755,0.257813 0.44401,0.429687 0.30078,0.171875 0.95963,0.34375 v 0.701822 h -6.04426 v -0.701822 q 0.88802,-0.229166 1.1888,-0.501301 0.30078,-0.286458 0.38672,-0.802083 0.10026,-0.515624 0.10026,-1.575519 V 68.738111 q 0,-0.98828 -0.0716,-1.43229 -0.0716,-0.458332 -0.24348,-0.701822 -0.15756,-0.257812 -0.42969,-0.401041 -0.27214,-0.157552 -0.93099,-0.34375 v -0.701822 h 6.04426 v 0.701822 q -0.6302,0.157552 -0.91666,0.315104 -0.27214,0.157552 -0.44401,0.401041 -0.15755,0.229167 -0.24349,0.701823 -0.0716,0.472655 -0.0716,1.460935 z" />
    <path d="m 201.28965,81.12742 q 0,0.959634 0.0573,1.403644 0.0716,0.44401 0.21484,0.701822 0.15756,0.257813 0.44401,0.429687 0.30079,0.171875 0.95964,0.34375 v 0.701822 h -6.04426 v -0.701822 q 0.88801,-0.229166 1.1888,-0.501301 0.30078,-0.286458 0.38671,-0.802083 0.10026,-0.515624 0.10026,-1.575519 V 68.738111 q 0,-0.98828 -0.0716,-1.43229 -0.0716,-0.458332 -0.24349,-0.701822 -0.15755,-0.257812 -0.42969,-0.401041 -0.27213,-0.157552 -0.93098,-0.34375 v -0.701822 h 6.04426 v 0.701822 q -0.63021,0.157552 -0.91667,0.315104 -0.27213,0.157552 -0.44401,0.401041 -0.15755,0.229167 -0.24349,0.701823 -0.0716,0.472655 -0.0716,1.460935 z" />
    <path d="m 199.56403,126.79466 q 0,0.95963 0.0573,1.40364 0.0716,0.44401 0.21484,0.70182 0.15755,0.25781 0.44401,0.42969 0.30078,0.17187 0.95963,0.34375 v 0.70182 h -6.04426 v -0.70182 q 0.88802,-0.22917 1.1888,-0.5013 0.30078,-0.28646 0.38672,-0.80208 0.10026,-0.51563 0.10026,-1.57552 v -12.38931 q 0,-0.98828 -0.0716,-1.43229 -0.0716,-0.45834 -0.24348,-0.70182 -0.15756,-0.25782 -0.42969,-0.40105 -0.27214,-0.15755 -0.93099,-0.34375 v -0.70182 h 6.04426 v 0.70182 q -0.6302,0.15756 -0.91666,0.31511 -0.27214,0.15755 -0.44401,0.40104 -0.15755,0.22917 -0.24349,0.70182 -0.0716,0.47266 -0.0716,1.46094 z" />
    <path d="m 207.57444,126.79466 q 0,0.95963 0.0573,1.40364 0.0716,0.44401 0.21484,0.70182 0.15756,0.25781 0.44401,0.42969 0.30079,0.17187 0.95964,0.34375 v 0.70182 h -6.04426 v -0.70182 q 0.88801,-0.22917 1.1888,-0.5013 0.30078,-0.28646 0.38671,-0.80208 0.10026,-0.51563 0.10026,-1.57552 v -12.38931 q 0,-0.98828 -0.0716,-1.43229 -0.0716,-0.45834 -0.24349,-0.70182 -0.15755,-0.25782 -0.42969,-0.40105 -0.27213,-0.15755 -0.93098,-0.34375 v -0.70182 h 6.04426 v 0.70182 q -0.63021,0.15756 -0.91667,0.31511 -0.27213,0.15755 -0.44401,0.40104 -0.15755,0.22917 -0.24349,0.70182 -0.0716,0.47266 -0.0716,1.46094 z" />
    <path d="m 215.58485,126.79466 q 0,0.95963 0.0573,1.40364 0.0716,0.44401 0.21484,0.70182 0.15755,0.25781 0.44401,0.42969 0.30078,0.17187 0.95963,0.34375 v 0.70182 h -6.04426 v -0.70182 q 0.88802,-0.22917 1.1888,-0.5013 0.30078,-0.28646 0.38672,-0.80208 0.10026,-0.51563 0.10026,-1.57552 v -12.38931 q 0,-0.98828 -0.0716,-1.43229 -0.0716,-0.45834 -0.24349,-0.70182 -0.15756,-0.25782 -0.42969,-0.40105 -0.27214,-0.15755 -0.93099,-0.34375 v -0.70182 h 6.04426 v 0.70182 q -0.6302,0.15756 -0.91666,0.31511 -0.27214,0.15755 -0.44401,0.40104 -0.15755,0.22917 -0.24349,0.70182 -0.0716,0.47266 -0.0716,1.46094 z" />
    <path d="m 187.8142,172.94013 q 0,0.95964 0.0573,1.40365 0.0716,0.44401 0.21485,0.70182 0.15755,0.25781 0.44401,0.42969 0.30078,0.17187 0.95963,0.34375 v 0.70182 h -6.04426 v -0.70182 q 0.88802,-0.22917 1.1888,-0.5013 0.30078,-0.28646 0.38672,-0.80209 0.10026,-0.51562 0.10026,-1.57552 v -12.3893 q 0,-0.98829 -0.0716,-1.43229 -0.0716,-0.45834 -0.24349,-0.70183 -0.15755,-0.25781 -0.42968,-0.40104 -0.27214,-0.15755 -0.93099,-0.34375 v -0.70182 h 6.04426 v 0.70182 q -0.63021,0.15755 -0.91666,0.31511 -0.27214,0.15755 -0.44401,0.40104 -0.15756,0.22916 -0.24349,0.70182 -0.0716,0.47265 -0.0716,1.46094 z" />
    <path d="m 196.51211,156.9701 v 0.70182 q -0.65886,0.11459 -1.00261,0.28646 -0.34375,0.17187 -0.51562,0.48698 -0.17188,0.3151 -0.17188,0.84505 0,0.48698 0.11459,1.05989 0.11458,0.5586 0.32942,1.26042 l 3.35156,11.68749 4.11068,-11.77343 q 0.0859,-0.27213 0.17187,-0.57291 0.0859,-0.30078 0.14323,-0.58724 0.0716,-0.28646 0.0859,-0.5013 0.0286,-0.21485 0.0286,-0.40105 0,-0.85937 -0.40104,-1.24609 -0.38672,-0.40104 -1.33203,-0.54427 v -0.70182 h 6.01562 v 0.70182 q -0.58724,0.14323 -0.94531,0.41537 -0.35807,0.27213 -0.71615,0.87369 -0.34375,0.60156 -0.84505,1.91927 l -5.944,15.86978 h -1.8763 l -4.82682,-15.97004 q -0.38672,-1.30338 -0.67318,-1.84765 -0.28645,-0.5586 -0.6302,-0.83073 -0.34375,-0.28646 -0.94531,-0.42969 v -0.70182 z" />
    <path d="m 160.90324,187.57433 v 0.70182 q -0.65886,0.11459 -1.00261,0.28646 -0.34375,0.17188 -0.51562,0.48698 -0.17188,0.31511 -0.17188,0.84505 0,0.48698 0.11459,1.0599 0.11458,0.55859 0.32942,1.26041 l 3.35156,11.68749 4.11067,-11.77342 q 0.0859,-0.27214 0.17188,-0.57292 0.0859,-0.30078 0.14323,-0.58724 0.0716,-0.28646 0.0859,-0.5013 0.0286,-0.21484 0.0286,-0.40104 0,-0.85938 -0.40104,-1.24609 -0.38672,-0.40105 -1.33203,-0.54428 v -0.70182 h 6.01562 v 0.70182 q -0.58724,0.14323 -0.94531,0.41537 -0.35807,0.27213 -0.71615,0.8737 -0.34375,0.60156 -0.84505,1.91926 l -5.944,15.86978 h -1.8763 l -4.82682,-15.97004 q -0.38672,-1.30338 -0.67318,-1.84765 -0.28645,-0.55859 -0.6302,-0.83073 -0.34375,-0.28646 -0.94531,-0.42969 v -0.70182 z" />
    <path d="m 113.77921,197.95791 v 0.70182 q -0.65886,0.11458 -1.00261,0.28646 -0.34375,0.17187 -0.51562,0.48698 -0.17188,0.3151 -0.17188,0.84505 0,0.48698 0.11459,1.05989 0.11458,0.5586 0.32942,1.26042 l 3.35156,11.68748 4.11067,-11.77342 q 0.0859,-0.27213 0.17188,-0.57292 0.0859,-0.30078 0.14323,-0.58723 0.0716,-0.28646 0.0859,-0.50131 0.0286,-0.21484 0.0286,-0.40104 0,-0.85937 -0.40104,-1.24609 -0.38672,-0.40104 -1.33203,-0.54427 v -0.70182 h 6.01562 v 0.70182 q -0.58724,0.14323 -0.94531,0.41536 -0.35808,0.27214 -0.71615,0.8737 -0.34375,0.60156 -0.84505,1.91927 l -5.944,15.86977 h -1.8763 l -4.82682,-15.97003 q -0.38672,-1.30338 -0.67318,-1.84765 -0.28645,-0.5586 -0.6302,-0.83073 -0.34375,-0.28646 -0.94532,-0.42969 v -0.70182 z" />
    <path d="m 129.29481,213.92794 q 0,0.95964 0.0573,1.40365 0.0716,0.44401 0.21485,0.70182 0.15755,0.25781 0.444,0.42969 0.30079,0.17187 0.95964,0.34374 v 0.70183 h -6.04426 v -0.70183 q 0.88802,-0.22916 1.1888,-0.5013 0.30078,-0.28645 0.38671,-0.80208 0.10026,-0.51562 0.10026,-1.57552 v -12.38931 q 0,-0.98828 -0.0716,-1.43229 -0.0716,-0.45833 -0.24349,-0.70182 -0.15755,-0.25781 -0.42969,-0.40104 -0.27213,-0.15755 -0.93098,-0.34375 v -0.70182 h 6.04426 v 0.70182 q -0.63021,0.15755 -0.91667,0.3151 -0.27213,0.15756 -0.44401,0.40105 -0.15755,0.22916 -0.24349,0.70182 -0.0716,0.47265 -0.0716,1.46093 z" />
    <path d="m 65.538257,181.83604 v 0.70182 q -0.658853,0.11458 -1.002603,0.28646 -0.343749,0.17187 -0.515624,0.48697 -0.171875,0.31511 -0.171875,0.84506 0,0.48697 0.114583,1.05989 0.114584,0.55859 0.329427,1.26042 l 3.351559,11.68748 4.110672,-11.77342 q 0.08594,-0.27214 0.171875,-0.57292 0.08594,-0.30078 0.143229,-0.58724 0.07161,-0.28645 0.08594,-0.5013 0.02865,-0.21484 0.02865,-0.40104 0,-0.85937 -0.401041,-1.24609 -0.386718,-0.40104 -1.33203,-0.54427 v -0.70182 h 6.015618 v 0.70182 q -0.587239,0.14323 -0.945311,0.41536 -0.358073,0.27214 -0.716145,0.8737 -0.34375,0.60156 -0.845051,1.91927 l -5.944004,15.86977 h -1.8763 l -4.826817,-15.97003 q -0.386718,-1.30339 -0.673176,-1.84766 -0.286458,-0.55859 -0.630208,-0.83072 -0.34375,-0.28646 -0.945311,-0.42969 v -0.70182 z" />
    <path d="m 81.053862,197.80607 q 0,0.95963 0.05729,1.40364 0.07161,0.44401 0.214843,0.70183 0.157552,0.25781 0.44401,0.42968 0.300781,0.17188 0.959635,0.34375 v 0.70183 h -6.044264 v -0.70183 q 0.888019,-0.22916 1.1888,-0.5013 0.300781,-0.28646 0.386719,-0.80208 0.10026,-0.51563 0.10026,-1.57552 v -12.38931 q 0,-0.98828 -0.07162,-1.43229 -0.07161,-0.45833 -0.243489,-0.70182 -0.157552,-0.25781 -0.429687,-0.40104 -0.272135,-0.15755 -0.930988,-0.34375 v -0.70182 h 6.044264 v 0.70182 q -0.630208,0.15755 -0.916666,0.3151 -0.272135,0.15755 -0.44401,0.40104 -0.157552,0.22917 -0.243489,0.70183 -0.07162,0.47265 -0.07162,1.46093 z" />
    <path d="m 89.064267,197.80607 q 0,0.95963 0.05729,1.40364 0.07162,0.44401 0.214844,0.70183 0.157552,0.25781 0.44401,0.42968 0.300781,0.17188 0.959634,0.34375 v 0.70183 h -6.044264 v -0.70183 q 0.88802,-0.22916 1.188801,-0.5013 0.300781,-0.28646 0.386718,-0.80208 0.100261,-0.51563 0.100261,-1.57552 v -12.38931 q 0,-0.98828 -0.07161,-1.43229 -0.07161,-0.45833 -0.243489,-0.70182 -0.157552,-0.25781 -0.429687,-0.40104 -0.272135,-0.15755 -0.930989,-0.34375 v -0.70182 h 6.044264 v 0.70182 q -0.630207,0.15755 -0.916665,0.3151 -0.272136,0.15755 -0.44401,0.40104 -0.157552,0.22917 -0.24349,0.70183 -0.07161,0.47265 -0.07161,1.46093 z" />
    <path d="m 38.486301,150.41204 v 0.70182 q -0.658853,0.11459 -1.002603,0.28646 -0.343749,0.17188 -0.515624,0.48698 -0.171875,0.3151 -0.171875,0.84505 0,0.48698 0.114583,1.05989 0.114583,0.5586 0.329427,1.26042 l 3.351559,11.68749 4.110672,-11.77343 q 0.08594,-0.27213 0.171875,-0.57291 0.08594,-0.30078 0.143229,-0.58724 0.07161,-0.28646 0.08594,-0.5013 0.02865,-0.21485 0.02865,-0.40105 0,-0.85937 -0.401041,-1.24609 -0.386719,-0.40104 -1.33203,-0.54427 v -0.70182 h 6.015618 v 0.70182 q -0.587239,0.14323 -0.945311,0.41537 -0.358073,0.27213 -0.716145,0.87369 -0.34375,0.60157 -0.845051,1.91927 l -5.944004,15.86978 h -1.8763 l -4.826817,-15.97004 q -0.386719,-1.30338 -0.673177,-1.84765 -0.286458,-0.5586 -0.630207,-0.83073 -0.34375,-0.28646 -0.945312,-0.42969 v -0.70182 z" />
    <path d="m 54.001906,166.38207 q 0,0.95964 0.05729,1.40365 0.07161,0.44401 0.214843,0.70182 0.157552,0.25781 0.44401,0.42969 0.300781,0.17187 0.959634,0.34375 v 0.70182 h -6.044264 v -0.70182 q 0.88802,-0.22917 1.188801,-0.5013 0.300781,-0.28646 0.386719,-0.80209 0.10026,-0.51562 0.10026,-1.57552 v -12.3893 q 0,-0.98828 -0.07162,-1.43229 -0.07161,-0.45834 -0.243489,-0.70183 -0.157552,-0.25781 -0.429687,-0.40104 -0.272135,-0.15755 -0.930989,-0.34375 v -0.70182 h 6.044264 v 0.70182 q -0.630207,0.15755 -0.916665,0.31511 -0.272135,0.15755 -0.44401,0.40104 -0.157552,0.22916 -0.243489,0.70182 -0.07162,0.47266 -0.07162,1.46094 z" />
    <path d="m 62.012311,166.38207 q 0,0.95964 0.05729,1.40365 0.07161,0.44401 0.214844,0.70182 0.157552,0.25781 0.44401,0.42969 0.300781,0.17187 0.959634,0.34375 v 0.70182 h -6.044264 v -0.70182 q 0.88802,-0.22917 1.188801,-0.5013 0.300781,-0.28646 0.386718,-0.80209 0.10026,-0.51562 0.10026,-1.57552 v -12.3893 q 0,-0.98828 -0.07161,-1.43229 -0.07162,-0.45834 -0.243489,-0.70183 -0.157552,-0.25781 -0.429687,-0.40104 -0.272136,-0.15755 -0.930989,-0.34375 v -0.70182 h 6.044264 v 0.70182 q -0.630208,0.15755 -0.916666,0.31511 -0.272135,0.15755 -0.44401,0.40104 -0.157551,0.22916 -0.243489,0.70182 -0.07161,0.47266 -0.07161,1.46094 z" />
    <path d="m 70.022717,166.38207 q 0,0.95964 0.05729,1.40365 0.07161,0.44401 0.214843,0.70182 0.157552,0.25781 0.44401,0.42969 0.300781,0.17187 0.959634,0.34375 v 0.70182 h -6.044263 v -0.70182 q 0.888019,-0.22917 1.1888,-0.5013 0.300781,-0.28646 0.386719,-0.80209 0.10026,-0.51562 0.10026,-1.57552 v -12.3893 q 0,-0.98828 -0.07161,-1.43229 -0.07161,-0.45834 -0.243489,-0.70183 -0.157552,-0.25781 -0.429687,-0.40104 -0.272135,-0.15755 -0.930988,-0.34375 v -0.70182 h 6.044263 v 0.70182 q -0.630207,0.15755 -0.916665,0.31511 -0.272135,0.15755 -0.44401,0.40104 -0.157552,0.22916 -0.243489,0.70182 -0.07161,0.47266 -0.07161,1.46094 z" />
    <path d="m 26.868716,126.79466 q 0,0.95963 0.05729,1.40364 0.07161,0.44401 0.214843,0.70182 0.157552,0.25781 0.44401,0.42969 0.300781,0.17187 0.959634,0.34375 v 0.70182 h -6.044264 v -0.70182 q 0.88802,-0.22917 1.188801,-0.5013 0.300781,-0.28646 0.386718,-0.80208 0.100261,-0.51563 0.100261,-1.57552 v -12.38931 q 0,-0.98828 -0.07161,-1.43229 -0.07161,-0.45834 -0.243489,-0.70182 -0.157552,-0.25782 -0.429687,-0.40105 -0.272135,-0.15755 -0.930989,-0.34375 v -0.70182 h 6.044264 v 0.70182 q -0.630207,0.15756 -0.916665,0.31511 -0.272135,0.15755 -0.44401,0.40104 -0.157552,0.22917 -0.24349,0.70182 -0.07161,0.47266 -0.07161,1.46094 z" />
    <path d="m 35.666881,110.82462 v 0.70182 q -0.687499,0.10027 -0.98828,0.3724 -0.300781,0.27214 -0.300781,0.74479 0,0.40104 0.272135,1.0026 0.272135,0.60157 0.773437,1.43229 l 2.07682,3.48047 2.048175,-3.30859 q 0.458333,-0.74479 0.687499,-1.1888 0.229167,-0.44401 0.315104,-0.74479 0.10026,-0.30078 0.10026,-0.61589 0,-0.44401 -0.257812,-0.74479 -0.257812,-0.3151 -0.859374,-0.42969 v -0.70182 h 5.313796 v 0.70182 q -0.529947,0.17188 -0.959634,0.50131 -0.415364,0.32942 -0.902343,0.95963 -0.472656,0.63021 -1.360676,1.99088 l -3.236975,5.01302 3.638017,5.98697 q 0.773436,1.27474 1.102863,1.79036 0.34375,0.50131 0.630208,0.85938 0.30078,0.34375 0.630207,0.60156 0.34375,0.25781 0.845051,0.44401 v 0.70182 h -6.287753 v -0.70182 q 0.658854,-0.11458 0.973957,-0.35807 0.315104,-0.25782 0.315104,-0.75912 0,-0.40104 -0.214843,-0.88802 -0.200521,-0.48698 -0.630208,-1.20312 l -2.592445,-4.32552 -2.735674,4.48307 q -0.687499,1.13151 -0.687499,1.86198 0,0.47265 0.257812,0.77344 0.257812,0.30078 0.859374,0.41536 v 0.70182 h -5.414056 v -0.70182 q 0.529947,-0.15755 0.873697,-0.3724 0.343749,-0.22916 0.658853,-0.57291 0.315104,-0.34375 0.701822,-0.8737 0.386719,-0.52995 1.23177,-1.84765 l 3.380204,-5.27083 -4.039058,-6.64583 q -0.572916,-0.91666 -0.873697,-1.33203 -0.286458,-0.41536 -0.54427,-0.67317 -0.243489,-0.25781 -0.44401,-0.35807 -0.20052,-0.11459 -0.458333,-0.20053 v -0.70182 z" />
    <path d="m 43.505099,67.889907 v 0.701823 q -0.6875,0.10026 -0.98828,0.372395 -0.300781,0.272135 -0.300781,0.744791 0,0.401041 0.272135,1.002603 0.272135,0.601562 0.773436,1.43229 l 2.076821,3.480465 2.048175,-3.30859 q 0.458332,-0.744791 0.687499,-1.188801 0.229166,-0.44401 0.315104,-0.744791 0.10026,-0.300781 0.10026,-0.615885 0,-0.44401 -0.257812,-0.74479 -0.257812,-0.315104 -0.859374,-0.429687 v -0.701823 h 5.313796 v 0.701823 q -0.529948,0.171874 -0.959635,0.501301 -0.415364,0.329427 -0.902342,0.959634 -0.472656,0.630208 -1.360676,1.990883 l -3.236975,5.013016 3.638016,5.986972 q 0.773437,1.274738 1.102864,1.790362 0.343749,0.501302 0.630207,0.859374 0.300781,0.34375 0.630208,0.601562 0.34375,0.257812 0.845051,0.44401 v 0.701822 h -6.287753 v -0.701822 q 0.658853,-0.114583 0.973957,-0.358072 0.315104,-0.257813 0.315104,-0.759114 0,-0.401041 -0.214844,-0.88802 -0.20052,-0.486979 -0.630207,-1.203124 l -2.592445,-4.325515 -2.735674,4.483067 q -0.687499,1.131509 -0.687499,1.861977 0,0.472656 0.257812,0.773437 0.257812,0.300781 0.859374,0.415364 v 0.701822 h -5.414056 v -0.701822 q 0.529947,-0.157552 0.873697,-0.372395 0.343749,-0.229167 0.658853,-0.572916 0.315104,-0.34375 0.701822,-0.873697 0.386718,-0.529948 1.231769,-1.847654 l 3.380205,-5.270828 -4.039058,-6.645825 q -0.572916,-0.916666 -0.873697,-1.33203 -0.286458,-0.415364 -0.54427,-0.673176 -0.243489,-0.257813 -0.44401,-0.358073 -0.200521,-0.114583 -0.458333,-0.20052 v -0.701823 z" />
    <path d="m 71.376818,38.651928 v 0.701822 q -0.687499,0.10026 -0.98828,0.372395 -0.300781,0.272135 -0.300781,0.744791 0,0.401041 0.272135,1.002603 0.272135,0.601562 0.773437,1.43229 l 2.07682,3.480465 2.048175,-3.30859 q 0.458333,-0.744791 0.687499,-1.188801 0.229167,-0.44401 0.315104,-0.744791 0.10026,-0.300781 0.10026,-0.615885 0,-0.444009 -0.257812,-0.74479 -0.257812,-0.315104 -0.859374,-0.429687 v -0.701822 h 5.313796 v 0.701822 q -0.529947,0.171874 -0.959634,0.501301 -0.415364,0.329427 -0.902343,0.959634 -0.472656,0.630208 -1.360675,1.990884 l -3.236976,5.013015 3.638017,5.986972 q 0.773436,1.274738 1.102863,1.790362 0.34375,0.501302 0.630208,0.859374 0.300781,0.34375 0.630207,0.601562 0.34375,0.257812 0.845051,0.44401 v 0.701822 h -6.287753 v -0.701822 q 0.658854,-0.114583 0.973957,-0.358072 0.315104,-0.257813 0.315104,-0.759114 0,-0.401041 -0.214843,-0.88802 -0.200521,-0.486978 -0.630208,-1.203123 l -2.592445,-4.325516 -2.735674,4.483067 q -0.687499,1.13151 -0.687499,1.861977 0,0.472656 0.257812,0.773437 0.257812,0.300781 0.859374,0.415364 v 0.701822 h -5.414056 v -0.701822 q 0.529947,-0.157552 0.873697,-0.372395 0.343749,-0.229167 0.658853,-0.572916 0.315104,-0.34375 0.701822,-0.873697 0.386719,-0.529947 1.23177,-1.847654 l 3.380204,-5.270828 -4.039058,-6.645825 q -0.572916,-0.916666 -0.873697,-1.33203 -0.286458,-0.415364 -0.54427,-0.673176 -0.243489,-0.257812 -0.44401,-0.358073 -0.20052,-0.114583 -0.458332,-0.20052 v -0.701822 z" />
    <path d="m 85.846852,54.621961 q 0,0.959635 0.05729,1.403644 0.07161,0.44401 0.214843,0.701823 0.157552,0.257812 0.44401,0.429687 0.300781,0.171874 0.959634,0.343749 v 0.701822 h -6.044264 v -0.701822 q 0.88802,-0.229166 1.188801,-0.501301 0.300781,-0.286458 0.386718,-0.802083 0.100261,-0.515624 0.100261,-1.575519 V 42.232653 q 0,-0.988281 -0.07161,-1.43229 -0.07161,-0.458333 -0.243489,-0.701823 -0.157552,-0.257812 -0.429687,-0.401041 -0.272135,-0.157552 -0.930989,-0.343749 v -0.701822 h 6.044264 v 0.701822 q -0.630207,0.157552 -0.916665,0.315103 -0.272135,0.157552 -0.44401,0.401042 -0.157552,0.229166 -0.24349,0.701822 -0.07161,0.472655 -0.07161,1.460936 z" />
    <path d="m 110.35407,23.349823 v 0.701822 q -0.68749,0.10026 -0.98828,0.372395 -0.30078,0.272135 -0.30078,0.744791 0,0.401041 0.27214,1.002603 0.27213,0.601562 0.77344,1.43229 l 2.07682,3.480465 2.04817,-3.30859 q 0.45833,-0.744791 0.6875,-1.188801 0.22917,-0.44401 0.3151,-0.744791 0.10026,-0.300781 0.10026,-0.615885 0,-0.444009 -0.25781,-0.74479 -0.25781,-0.315104 -0.85937,-0.429687 v -0.701822 h 5.31379 v 0.701822 q -0.52994,0.171874 -0.95963,0.501301 -0.41536,0.329427 -0.90234,0.959635 -0.47266,0.630207 -1.36068,1.990883 l -3.23697,5.013015 3.63801,5.986972 q 0.77344,1.274738 1.10287,1.790363 0.34375,0.501301 0.6302,0.859374 0.30078,0.343749 0.63021,0.601561 0.34375,0.257813 0.84505,0.44401 v 0.701822 h -6.28775 v -0.701822 q 0.65885,-0.114583 0.97396,-0.358072 0.3151,-0.257812 0.3151,-0.759114 0,-0.401041 -0.21484,-0.88802 -0.20052,-0.486978 -0.63021,-1.203123 l -2.59245,-4.325516 -2.73567,4.483068 q -0.6875,1.131509 -0.6875,1.861977 0,0.472655 0.25781,0.773436 0.25782,0.300781 0.85938,0.415364 v 0.701822 h -5.41406 v -0.701822 q 0.52995,-0.157552 0.8737,-0.372395 0.34375,-0.229167 0.65885,-0.572916 0.3151,-0.34375 0.70182,-0.873697 0.38672,-0.529947 1.23177,-1.847654 l 3.38021,-5.270827 -4.03906,-6.645826 q -0.57292,-0.916666 -0.8737,-1.33203 -0.28646,-0.415364 -0.54427,-0.673176 -0.24349,-0.257812 -0.44401,-0.358073 -0.20052,-0.114583 -0.45833,-0.20052 v -0.701822 z" />
    <path d="m 124.82411,39.319856 q 0,0.959635 0.0573,1.403645 0.0716,0.444009 0.21484,0.701822 0.15756,0.257812 0.44401,0.429687 0.30078,0.171874 0.95964,0.343749 v 0.701822 h -6.04427 v -0.701822 q 0.88802,-0.229166 1.1888,-0.501301 0.30079,-0.286458 0.38672,-0.802083 0.10026,-0.515624 0.10026,-1.575519 V 26.930548 q 0,-0.98828 -0.0716,-1.43229 -0.0716,-0.458333 -0.24349,-0.701823 -0.15755,-0.257812 -0.42969,-0.401041 -0.27213,-0.157552 -0.93099,-0.343749 v -0.701822 h 6.04427 v 0.701822 q -0.63021,0.157552 -0.91667,0.315103 -0.27213,0.157552 -0.44401,0.401042 -0.15755,0.229166 -0.24349,0.701822 -0.0716,0.472656 -0.0716,1.460936 z" />
    <path d="m 132.83452,39.319856 q 0,0.959635 0.0573,1.403645 0.0716,0.444009 0.21484,0.701822 0.15755,0.257812 0.44401,0.429687 0.30078,0.171874 0.95963,0.343749 v 0.701822 h -6.04426 v -0.701822 q 0.88802,-0.229166 1.1888,-0.501301 0.30078,-0.286458 0.38672,-0.802083 0.10026,-0.515624 0.10026,-1.575519 V 26.930548 q 0,-0.98828 -0.0716,-1.43229 -0.0716,-0.458333 -0.24349,-0.701823 -0.15756,-0.257812 -0.42969,-0.401041 -0.27214,-0.157552 -0.93099,-0.343749 v -0.701822 h 6.04426 v 0.701822 q -0.6302,0.157552 -0.91666,0.315103 -0.27214,0.157552 -0.44401,0.401042 -0.15755,0.229166 -0.24349,0.701822 -0.0716,0.472656 -0.0716,1.460936 z" />
  </g>
  <g id="dials">
    <g id="hours">
      <rect x="119.4" y="69.8" width="1.2" height="50" ry="0.5" fill="#000080"/>
      <rect x="119.4" y="120" width="1.2" height="12.2" ry="0.5" fill="#000060"/>
      <path d="m 128.5,120 -8,-50 v 50 z" fill="#000070" />
      <path d="m 111.5,120 8,-50 v 50 z" fill="#000060" />
      <path d="m 128.5,120 -8,12 v -12 z" fill="#000050" />
      <path d="m 111.5,120 8,12 v -12 z" fill="#000040" />
      <animateTransform attributeName="transform" attributeType="XML" type="rotate"
        begin="0s" dur="12:00:00" repeatCount="indefinite" additive="sum"
        from="0,120,120" to="360,120,120" />
    </g>
    <g id="minutes">
      <rect x="119.4" y="39.8" width="1.2" height="80" ry="0.5" fill="#000080"/>
      <rect x="119.4" y="120" width="1.2" height="12.2" ry="0.5" fill="#000060"/>
      <path d="m 128.5,120 -8,-80 v 80 z" fill="#000070" />
      <path d="m 111.5,120 8,-80 v 80 z" fill="#000060" />
      <path d="m 128.5,120 -8,12 v -12 z" fill="#000050" />
      <path d="m 111.5,120 8,12 v -12 z" fill="#000040" />
      <animateTransform attributeName="transform" attributeType="XML" type="rotate"
        begin="0s" dur="01:00:00" repeatCount="indefinite" additive="sum"
        from="0,120,120" to="360,120,120" />
    </g>
    <g id="seconds" fill="#ff0000" stroke="#9d0000" stroke-width="0.3" stroke-opacity="0.3">
      <g>
        <g>
          <rect x="118" y="25" width="4" height="110" ry="1.2">
            <animateTransform attributeName="transform" attributeType="XML" type="rotate"
              begin="0s" dur="00:01:00" repeatCount="indefinite" additive="sum" calcMode="discrete"
              values="0,120,120; 90,120,120; 180,120,120; 270,120,120" />
          </rect>
          <animateTransform attributeName="transform" attributeType="XML" type="rotate"
            begin="0s" dur="00:00:15" repeatCount="indefinite" additive="sum" calcMode="discrete"
            values="0,120,120; 30,120,120; 60,120,120" />
        </g>
        <animateTransform attributeName="transform" attributeType="XML" type="rotate"
          begin="0s" dur="00:00:05" repeatCount="indefinite" additive="sum" calcMode="discrete"
          values="0,120,120; 6,120,120; 12,120,120; 18,120,120; 24,120,120" />
        <circle cx="120" cy="120" r="8" />
      </g>
    </g>
    <circle cx="120" cy="120" r="3" fill="url(#radialGradient39232)" />
  </g>
</svg>
